<svg width="1000" height="1001" viewBox="0 0 1000 1001" fill="none" xmlns="http://www.w3.org/2000/svg">
<g clip-path="url(#clip0_1193_917)">
<path d="M499.9 7.38544C488.574 7.38544 476.778 7.85559 462.803 8.92401C458.358 9.26593 454.896 12.9842 454.896 17.429V984.336C454.896 988.824 458.358 992.542 462.803 992.841C476.864 993.91 488.66 994.38 499.985 994.38C511.311 994.38 523.021 993.91 536.996 992.841C541.441 992.499 544.903 988.781 544.903 984.336V17.429C544.903 12.9414 541.441 9.22321 536.996 8.92401C523.021 7.89832 511.311 7.38544 500.071 7.38544H499.9Z" fill="url(#paint0_linear_1193_917)"/>
<path d="M933.378 217.007C931.155 217.007 928.976 217.862 927.394 219.443C923.206 223.546 919.018 227.734 914.787 231.966C804.266 343.213 750.245 431.296 749.604 501.258C748.963 570.922 803.283 659.945 915.684 773.458C918.932 776.748 922.138 779.954 925.386 783.116L926.198 783.928C927.822 785.51 929.959 786.407 932.224 786.407C932.48 786.407 932.737 786.407 932.993 786.407C935.515 786.194 937.78 784.869 939.233 782.774C953.977 761.619 967.055 739.438 978.082 716.83C979.663 713.581 979.022 709.692 976.5 707.085C887.904 616.651 839.311 543.868 839.696 502.113C840.08 459.29 889.016 386.293 977.441 296.586C979.962 294.021 980.603 290.132 979.065 286.884C968.167 264.318 955.174 242.052 940.472 220.725C939.019 218.631 936.754 217.306 934.232 217.093C933.976 217.093 933.677 217.093 933.42 217.093L933.378 217.007Z" fill="url(#paint1_linear_1193_917)"/>
<path d="M730.51 56.7886C729.527 56.7886 728.544 56.9597 727.603 57.3015C725.424 58.0708 723.672 59.7376 722.689 61.8318C649.435 224.792 602.082 397.412 602.082 501.693C602.082 611.102 647.469 784.021 717.731 942.28C718.671 944.374 720.423 946.041 722.56 946.81C723.501 947.152 724.526 947.323 725.509 947.323C726.749 947.323 728.031 947.024 729.185 946.511C752.007 935.613 774.274 922.792 795.301 908.389C798.677 906.081 799.959 901.679 798.292 897.918C733.758 750.343 692.088 594.776 692.088 501.65C692.088 408.524 735.211 256.247 801.925 106.408C803.592 102.647 802.352 98.2446 799.019 95.9368C778.291 81.4913 756.494 68.5844 734.228 57.6862C733.031 57.0878 731.749 56.8314 730.467 56.8314L730.51 56.7886Z" fill="url(#paint2_linear_1193_917)"/>
<path d="M269.323 56.8586C268.041 56.8586 266.758 57.1578 265.562 57.7562C243.295 68.6971 221.499 81.604 200.771 96.0495C197.394 98.4001 196.198 102.802 197.865 106.52C264.536 256.36 307.616 411.457 307.616 501.677C307.616 591.897 265.946 750.285 201.455 897.859C199.831 901.62 201.07 906.022 204.446 908.33C225.302 922.605 247.27 935.298 269.665 946.068C270.819 946.624 272.101 946.923 273.383 946.923C274.366 946.923 275.392 946.752 276.332 946.41C278.511 945.598 280.264 943.974 281.204 941.837C351.978 782.039 397.708 609.292 397.708 501.72C397.708 394.148 350.397 224.862 277.144 61.9445C276.204 59.8503 274.409 58.1835 272.229 57.4142C271.289 57.0723 270.306 56.9014 269.323 56.9014V56.8586Z" fill="url(#paint3_linear_1193_917)"/>
<path d="M65.7971 217.041C63.2755 217.297 61.0104 218.622 59.5573 220.674C44.8127 242 31.8203 264.266 20.9648 286.832C19.3835 290.08 20.0245 293.969 22.5888 296.534C111.014 386.241 159.949 459.238 160.334 502.061C160.889 562.45 55.7109 674.082 23.4436 706.863C20.922 709.427 20.281 713.359 21.8623 716.607C32.8887 739.258 45.9666 761.482 60.7967 782.723C62.2498 784.774 64.5149 786.099 67.0365 786.355C67.2929 786.355 67.5493 786.355 67.8058 786.355C70.0281 786.355 72.2078 785.458 73.8318 783.877L74.3874 783.321C77.6783 780.03 81.0118 776.739 84.3454 773.406C196.747 659.893 251.067 570.87 250.426 501.207C249.785 431.244 195.721 343.161 85.2429 231.914C81.0546 227.683 76.8235 223.537 72.6352 219.391C71.0111 217.81 68.8742 216.955 66.6518 216.955C66.3954 216.955 66.0962 216.955 65.8398 216.955L65.7971 217.041Z" fill="url(#paint4_linear_1193_917)"/>
</g>
<defs>
<linearGradient id="paint0_linear_1193_917" x1="499.9" y1="-125.383" x2="499.9" y2="994.38" gradientUnits="userSpaceOnUse">
<stop stop-color="#E8312C"/>
<stop offset="0.615385" stop-color="#E2335A"/>
<stop offset="1" stop-color="#F77216"/>
</linearGradient>
<linearGradient id="paint1_linear_1193_917" x1="864.746" y1="140.413" x2="864.746" y2="786.407" gradientUnits="userSpaceOnUse">
<stop stop-color="#E8312C"/>
<stop offset="0.615385" stop-color="#E2335A"/>
<stop offset="1" stop-color="#F77216"/>
</linearGradient>
<linearGradient id="paint2_linear_1193_917" x1="702.372" y1="-63.0044" x2="702.372" y2="947.323" gradientUnits="userSpaceOnUse">
<stop stop-color="#E8312C"/>
<stop offset="0.615385" stop-color="#E2335A"/>
<stop offset="1" stop-color="#F77216"/>
</linearGradient>
<linearGradient id="paint3_linear_1193_917" x1="297.414" y1="-62.8712" x2="297.414" y2="946.923" gradientUnits="userSpaceOnUse">
<stop stop-color="#E8312C"/>
<stop offset="0.615385" stop-color="#E2335A"/>
<stop offset="1" stop-color="#F77216"/>
</linearGradient>
<linearGradient id="paint4_linear_1193_917" x1="135.269" y1="140.361" x2="135.269" y2="786.355" gradientUnits="userSpaceOnUse">
<stop stop-color="#E8312C"/>
<stop offset="0.615385" stop-color="#E2335A"/>
<stop offset="1" stop-color="#F77216"/>
</linearGradient>
<clipPath id="clip0_1193_917">
<rect width="1000" height="1000" fill="white" transform="translate(0 0.882812)"/>
</clipPath>
</defs>
</svg>
